<svg width="69" height="69" viewBox="0 0 69 69" fill="none" xmlns="http://www.w3.org/2000/svg">
  <path d="M34.4877 3.28454C40.6591 3.28454 46.6919 5.11457 51.8232 8.54322C56.9546 11.9719 60.9539 16.8451 63.3156 22.5468C65.6773 28.2484 66.2953 34.5223 65.0913 40.5751C63.8873 46.6279 60.9155 52.1878 56.5517 56.5516C52.1878 60.9155 46.6279 63.8873 40.5751 65.0913C34.5223 66.2952 28.2484 65.6773 22.5468 63.3156C16.8451 60.9539 11.9719 56.9546 8.54323 51.8232C5.11459 46.6919 3.28456 40.6591 3.28456 34.4877C3.28456 26.2121 6.57202 18.2755 12.4237 12.4237C18.2755 6.57201 26.2121 3.28454 34.4877 3.28454ZM34.4877 0C27.6667 0 20.9988 2.02267 15.3274 5.81222C9.6559 9.60178 5.23553 14.988 2.62523 21.2898C0.0149428 27.5916 -0.668028 34.5259 0.662687 41.2159C1.9934 47.9059 5.27803 54.051 10.1012 58.8742C14.9244 63.6973 21.0695 66.982 27.7595 68.3127C34.4494 69.6434 41.3838 68.9604 47.6856 66.3502C53.9874 63.7399 59.3736 59.3195 63.1632 53.648C66.9527 47.9765 68.9754 41.3087 68.9754 34.4877C68.9623 25.345 65.3246 16.5805 58.8598 10.1156C52.3949 3.65073 43.6304 0.0130331 34.4877 0Z" fill="#96C2D7"/>
  <path d="M57.988 26.9168C57.2769 25.2246 56.242 23.6877 54.9415 22.3923C53.6399 21.0937 52.1012 20.0567 50.4089 19.3377C48.6547 18.5983 46.7699 18.2185 44.8662 18.221V25.8739C46.6084 25.8739 48.2793 26.566 49.5113 27.798C50.7432 29.0299 51.4353 30.7008 51.4353 32.443V41.9025H59.0883V32.4677C59.1 30.5621 58.7257 28.6738 57.988 26.9168Z" fill="#96C2D7"/>
  <path d="M59.1374 41.9026H51.4844V47.1086H59.1374V41.9026Z" fill="#B2B2B2"/>
  <path d="M57.6185 31.9257C57.6245 30.3573 57.3116 28.804 56.6988 27.3602C56.1099 25.9669 55.2566 24.7009 54.1861 23.6323C53.5376 22.9896 52.8187 22.4222 52.043 21.9407L51.5913 21.6697C51.4841 21.6252 51.3644 21.6214 51.2545 21.6589C51.1447 21.6965 51.0524 21.7729 50.9949 21.8737C50.9374 21.9746 50.9187 22.0929 50.9424 22.2066C50.966 22.3202 51.0303 22.4213 51.1233 22.4909L51.4189 22.6715C53.0173 23.6286 54.3407 24.9832 55.2602 26.6034C56.1797 28.2237 56.664 30.0545 56.666 31.9175C56.666 32.0438 56.7161 32.165 56.8054 32.2543C56.8948 32.3436 57.0159 32.3938 57.1422 32.3938C57.2685 32.3938 57.3897 32.3436 57.479 32.2543C57.5683 32.165 57.6185 32.0438 57.6185 31.9175V31.9257Z" fill="white"/>
  <path d="M44.8496 18.2209C41.4385 18.2188 38.1421 19.4528 35.5708 21.6944C36.8595 22.9865 37.8881 24.5141 38.6008 26.1942C38.9546 27.0345 39.2295 27.9059 39.4219 28.7972C40.0184 27.9031 40.8252 27.169 41.7716 26.6593C42.7179 26.1496 43.7748 25.88 44.8496 25.8739V18.2209Z" fill="#E9500E"/>
  <path d="M37.2131 26.9168C36.5045 25.2253 35.4725 23.6884 34.1749 22.3923C32.8534 21.0673 31.2828 20.0166 29.5537 19.3008C27.8246 18.5849 25.971 18.2179 24.0996 18.221V25.8739C25.8418 25.8739 27.5127 26.566 28.7447 27.798C29.9766 29.0299 30.6687 30.7008 30.6687 32.443V41.9025H38.3217V32.4677C38.3305 30.5615 37.9535 28.6733 37.2131 26.9168Z" fill="#96C2D7"/>
  <path d="M17.4977 41.9026H9.84473V47.1086H17.4977V41.9026Z" fill="#B2B2B2"/>
  <path d="M38.338 41.9026H30.6851V47.1086H38.338V41.9026Z" fill="#B2B2B2"/>
  <path d="M24.0914 18.221C22.2197 18.2157 20.3654 18.5816 18.636 19.2976C16.9066 20.0136 15.3363 21.0655 14.0161 22.3924C12.7101 23.6848 11.672 25.2223 10.9615 26.9168C10.222 28.6739 9.8423 30.5614 9.84474 32.4677V41.9025H17.4977V32.4677C17.4977 30.7255 18.1898 29.0546 19.4218 27.8227C20.6537 26.5907 22.3246 25.8986 24.0668 25.8986L24.0914 18.221Z" fill="#E9500E"/>
  <path d="M36.8273 31.9257C36.8305 30.3567 36.5148 28.8035 35.8994 27.3602C35.3067 25.9609 34.4414 24.6936 33.3539 23.6323C32.7053 22.9896 31.9864 22.4222 31.2107 21.9407L30.7591 21.6697C30.6519 21.6252 30.5321 21.6214 30.4223 21.6589C30.3124 21.6965 30.2201 21.7729 30.1626 21.8737C30.1051 21.9746 30.0864 22.0929 30.1101 22.2066C30.1337 22.3202 30.1981 22.4213 30.291 22.4909L30.5866 22.6715C32.1861 23.6273 33.5104 24.9817 34.4301 26.6022C35.3497 28.2228 35.8333 30.0542 35.8337 31.9175C35.849 32.0341 35.9061 32.1412 35.9945 32.2187C36.0829 32.2963 36.1965 32.339 36.314 32.339C36.4316 32.339 36.5452 32.2963 36.6336 32.2187C36.722 32.1412 36.7791 32.0341 36.7944 31.9175L36.8273 31.9257Z" fill="white"/>
</svg>
