<svg width="232" height="67" viewBox="0 0 232 67" fill="none" xmlns="http://www.w3.org/2000/svg">
  <g clip-path="url(#clip0_21_238)">
    <path d="M88.7143 40.8155C88.2224 41.4919 87.6731 42.1241 87.0726 42.7052C86.4413 43.3232 85.7352 43.8589 84.9709 44.2999C84.1281 44.781 83.2308 45.1585 82.2983 45.4241C81.2223 45.7282 80.1087 45.8758 78.9911 45.8626C77.8861 45.8729 76.7879 45.6867 75.7474 45.3125C74.7933 44.9839 73.9172 44.4599 73.1747 43.7737C72.4321 43.0875 71.8391 42.254 71.4331 41.3258C70.9998 40.3031 70.7863 39.2 70.8065 38.0886C70.7554 36.6756 71.0959 35.276 71.7899 34.0462C72.4582 32.9528 73.4094 32.0626 74.5419 31.4708C75.8764 30.7802 77.3156 30.3168 78.8008 30.0993C80.6157 29.8095 82.4513 29.6709 84.2889 29.6847H85.7957C86.2974 29.6868 86.7982 29.7241 87.2947 29.7964C87.2947 29.2462 87.366 28.7279 87.4057 28.2017C87.4454 27.6755 87.4612 27.2369 87.4612 26.7984C87.4612 24.7891 87.0594 23.3698 86.2557 22.5406C85.4521 21.7114 83.9955 21.318 81.8859 21.3606C81.2199 21.3641 80.5549 21.4121 79.8952 21.5041C79.1894 21.5998 78.4598 21.7273 77.7143 21.9028C76.9905 22.0635 76.2779 22.2712 75.5809 22.5247C74.965 22.7336 74.3702 23.0005 73.8044 23.322L72.4403 20.037C73.9414 19.1551 75.5754 18.525 77.2781 18.1712C79.1703 17.7635 81.1006 17.5603 83.0358 17.5653C86.8585 17.5653 89.3329 18.7559 90.4591 21.1373C91.4161 19.8129 92.7484 18.8098 94.2817 18.2589C95.8157 17.6657 97.4442 17.3577 99.0878 17.35C100.339 17.3504 101.586 17.4894 102.807 17.7646C104.023 18.0312 105.16 18.577 106.13 19.3593C107.182 20.2556 107.999 21.3971 108.51 22.6841C109.193 24.4619 109.509 26.361 109.437 28.2655C109.437 28.8555 109.437 29.4695 109.358 30.1073C109.279 30.7452 109.239 31.4309 109.168 32.1644H91.5535C91.5535 35.3538 92.2171 37.8335 93.5441 39.6036C94.8712 41.3737 97.1394 42.2614 100.349 42.2667C101.625 42.264 102.89 42.0318 104.084 41.581C105.098 41.2329 106.049 40.7212 106.9 40.066L108.533 43.2554C107.295 44.1978 105.89 44.8959 104.393 45.3125C102.686 45.845 100.908 46.1138 99.1195 46.1098C97.0377 46.1376 94.9786 45.6733 93.1079 44.7544C91.3903 43.9191 89.984 42.5527 89.095 40.8554L88.7143 40.8155ZM80.1966 42.0195C81.1219 42.0334 82.0433 41.8961 82.9248 41.6129C83.6638 41.3671 84.3637 41.0153 85.0027 40.5683C85.5521 40.1803 86.0389 39.7097 86.4461 39.173C86.7955 38.7203 87.081 38.2212 87.2947 37.69V33.1292C86.7871 33.0894 86.2637 33.0654 85.7085 33.0495C85.1534 33.0335 84.6616 33.0495 84.1223 33.0495C83.0172 33.0478 81.9129 33.1117 80.8152 33.2408C79.8397 33.3431 78.8836 33.5847 77.976 33.9584C77.2126 34.2625 76.5366 34.753 76.0091 35.3857C75.5014 36.0335 75.2399 36.8419 75.2716 37.666C75.249 38.2661 75.3598 38.8638 75.5957 39.4154C75.8317 39.9671 76.1869 40.459 76.6357 40.8554C77.6285 41.6913 78.9046 42.1085 80.1966 42.0195ZM99.1433 21.1612C97.2659 21.0699 95.4204 21.6742 93.9565 22.8596C92.648 23.9997 91.8787 25.9373 91.6645 28.6801H105.187V28.0103C105.187 25.5147 104.631 23.7526 103.521 22.7081C102.318 21.6387 100.747 21.0837 99.1433 21.1612Z" fill="#E9500E"/>
    <path d="M135.418 46.692C135.418 50.2375 134.483 52.8527 132.611 54.5378C130.739 56.2228 127.963 57.0653 124.284 57.0653C122.516 57.102 120.75 56.9631 119.01 56.6507C117.836 56.4269 116.692 56.0685 115.599 55.5823L116.741 51.8508C117.582 52.1777 118.51 52.4886 119.533 52.7836C120.829 53.1093 122.163 53.2568 123.498 53.2222C124.759 53.2552 126.018 53.1157 127.242 52.8076C128.129 52.5797 128.935 52.1043 129.565 51.4361C130.179 50.7356 130.592 49.8817 130.763 48.9644C130.999 47.781 131.108 46.5754 131.088 45.3684V42.7372H130.874C130.169 43.7763 129.21 44.6163 128.09 45.1771C126.699 45.797 125.185 46.0888 123.665 46.0302C119.964 46.0302 117.262 44.8767 115.56 42.5698C113.857 40.2628 112.99 36.6775 112.958 31.8138C112.958 27.1254 114.069 23.564 116.289 21.1295C118.51 18.6949 121.788 17.4803 126.123 17.4857C127.91 17.4555 129.694 17.6213 131.445 17.98C132.792 18.2687 134.117 18.6524 135.41 19.1282L135.418 46.692ZM124.442 42.1871C126.023 42.2737 127.58 41.7681 128.812 40.7678C129.998 39.5876 130.783 38.0614 131.056 36.4064V22.3653C129.303 21.617 127.408 21.2633 125.505 21.3288C124.404 21.2751 123.306 21.474 122.293 21.9106C121.28 22.3471 120.38 23.0098 119.66 23.8484C118.243 25.5281 117.534 28.1646 117.534 31.7579C117.51 33.1744 117.625 34.5898 117.875 35.9838C118.085 37.1431 118.493 38.2572 119.081 39.2768C119.595 40.163 120.327 40.9015 121.206 41.4216C122.198 41.9614 123.315 42.2256 124.442 42.1871Z" fill="#E9500E"/>
    <path d="M158.537 45.4241V29.7804C158.537 26.9259 158.127 24.7758 157.308 23.3299C156.488 21.8841 154.976 21.1612 152.772 21.1612C151.047 21.1051 149.359 21.6707 148.013 22.7558C146.769 23.7767 145.849 25.14 145.364 26.6787V45.4241H140.994V17.9798H144.048L144.841 21.3286H145.055C146.003 20.0981 147.225 19.1093 148.624 18.4423C150.269 17.6556 152.076 17.2704 153.898 17.318C155.238 17.2945 156.574 17.4691 157.863 17.8363C158.956 18.1653 159.931 18.8049 160.671 19.6781C161.483 20.7205 162.052 21.9331 162.336 23.2263C162.756 25.0719 162.948 26.9626 162.907 28.8555V45.4241H158.537Z" fill="#E9500E"/>
    <path d="M189.078 43.2315C187.847 44.1813 186.448 44.8875 184.954 45.3125C183.249 45.845 181.474 46.1138 179.688 46.1099C177.834 46.1518 175.992 45.8042 174.28 45.0893C172.799 44.455 171.503 43.4537 170.512 42.179C169.488 40.8367 168.745 39.2984 168.331 37.6581C167.834 35.7211 167.594 33.7264 167.618 31.726C167.618 27.0376 168.657 23.4682 170.735 21.0178C172.812 18.5673 175.779 17.342 179.633 17.342C180.882 17.342 182.126 17.481 183.345 17.7567C184.62 18.0136 185.812 18.5853 186.813 19.4204C187.814 20.2555 188.592 21.3278 189.078 22.5407C189.763 24.3181 190.079 26.2174 190.006 28.122C189.997 29.4572 189.889 30.7898 189.681 32.1087H172.154C172.132 33.5513 172.297 34.9908 172.646 36.3904C172.92 37.5525 173.442 38.6407 174.176 39.5797C174.893 40.4589 175.821 41.1396 176.873 41.5571C178.173 42.0463 179.554 42.2791 180.941 42.2428C182.21 42.2358 183.467 42.0121 184.661 41.581C185.684 41.2652 186.631 40.7414 187.445 40.0421L189.078 43.2315ZM179.688 21.1613C177.818 21.0668 175.979 21.6718 174.525 22.8596C173.235 24.0024 172.463 25.9426 172.21 28.6801H185.748C185.748 25.9001 185.219 23.9519 184.161 22.8357C183.573 22.2592 182.871 21.8125 182.101 21.5242C181.33 21.2359 180.509 21.1123 179.688 21.1613Z" fill="#E9500E"/>
    <path d="M192.973 17.9799H197.232V12.5421L201.601 11.2664V17.9719H209.033V21.8151H201.601V37.0282C201.499 38.412 201.744 39.7995 202.315 41.0627C202.567 41.4584 202.922 41.7774 203.342 41.9853C203.761 42.1933 204.229 42.2823 204.694 42.2428C205.498 42.2566 206.299 42.1546 207.074 41.9398C207.724 41.7405 208.454 41.4694 209.255 41.1425L210.238 44.4913C209.207 44.9861 208.128 45.3735 207.018 45.6474C205.785 45.9453 204.52 46.0925 203.251 46.0859C201.03 46.0859 199.46 45.4561 198.556 44.1883C197.652 42.9205 197.184 40.8156 197.184 37.8495V21.8231H192.925L192.973 17.9799Z" fill="#E9500E"/>
    <path d="M227.63 37.9611C227.657 37.4851 227.583 37.0087 227.414 36.5634C227.244 36.1181 226.983 35.714 226.647 35.3777C225.938 34.7061 225.116 34.1662 224.22 33.7831C223.252 33.3605 222.197 32.9857 221.047 32.5791C219.938 32.2066 218.874 31.7091 217.875 31.096C216.912 30.5092 216.078 29.7304 215.425 28.8077C214.713 27.6579 214.37 26.3166 214.441 24.9645C214.441 22.3068 215.187 20.3772 216.678 19.1759C218.169 17.9746 220.244 17.3606 222.903 17.334C224.565 17.3015 226.225 17.4756 227.844 17.8523C229.036 18.1533 230.196 18.5671 231.31 19.0882L230.279 22.716C229.329 22.2627 228.338 21.8997 227.321 21.6317C226.079 21.3153 224.803 21.1599 223.522 21.1692C222.295 21.0656 221.065 21.3439 220.001 21.9666C219.592 22.3121 219.273 22.7526 219.071 23.2499C218.869 23.7473 218.791 24.2865 218.843 24.821C218.82 25.2435 218.898 25.6654 219.069 26.0521C219.24 26.4387 219.499 26.7792 219.826 27.0456C220.566 27.6305 221.383 28.1107 222.253 28.4728C223.22 28.8954 224.275 29.2701 225.425 29.7087C226.547 30.0992 227.614 30.6353 228.598 31.3033C229.565 31.9634 230.39 32.8121 231.024 33.799C231.732 35.0032 232.073 36.3888 232.008 37.7857C232.017 38.909 231.823 40.0246 231.437 41.0787C231.066 42.0898 230.456 42.9955 229.66 43.7178C228.794 44.4885 227.783 45.0768 226.686 45.448C225.338 45.8914 223.925 46.1043 222.507 46.0779C220.722 46.114 218.94 45.9102 217.209 45.472C215.938 45.1439 214.711 44.6648 213.553 44.0447L214.861 40.3132C215.901 40.8737 216.999 41.315 218.137 41.6288C219.467 42.0316 220.848 42.2358 222.237 42.2348C223.59 42.2869 224.932 41.9642 226.115 41.3019C227.125 40.6853 227.63 39.5717 227.63 37.9611Z" fill="#E9500E"/>
    <path d="M33.3167 3.18934C39.2773 3.18934 45.104 4.96633 50.06 8.29559C55.016 11.6249 58.8787 16.3569 61.1597 21.8932C63.4407 27.4296 64.0376 33.5217 62.8747 39.399C61.7119 45.2764 58.8416 50.6751 54.6268 54.9125C50.4121 59.1498 45.0422 62.0355 39.1962 63.2046C33.3501 64.3736 27.2906 63.7736 21.7837 61.4804C16.2769 59.1872 11.5702 55.3037 8.25865 50.3211C4.94714 45.3385 3.17963 39.4806 3.17963 33.488C3.17963 25.4523 6.35478 17.7457 12.0066 12.0636C17.6584 6.38151 25.3239 3.18934 33.3167 3.18934ZM33.3167 0C26.7287 0 20.2887 1.96404 14.811 5.64375C9.3333 9.32347 5.06395 14.5536 2.54284 20.6727C0.021726 26.7919 -0.637911 33.5252 0.64734 40.0212C1.93259 46.5173 5.105 52.4843 9.76341 57.1677C14.4218 61.851 20.357 65.0405 26.8184 66.3326C33.2798 67.6248 39.9772 66.9616 46.0637 64.427C52.1502 61.8923 57.3524 57.6001 61.0125 52.093C64.6726 46.5859 66.6261 40.1114 66.6261 33.488C66.6135 24.6103 63.1001 16.0999 56.8561 9.8224C50.6121 3.54491 42.1471 0.0126553 33.3167 0Z" fill="#96C2D7"/>
    <path d="M56.0154 26.1367C55.3286 24.4935 54.3291 23.0011 53.0731 21.7433C51.8159 20.4823 50.3298 19.4754 48.6953 18.7773C47.001 18.0592 45.1806 17.6905 43.342 17.6929V25.124C45.0247 25.124 46.6385 25.7961 47.8283 26.9923C49.0182 28.1885 49.6866 29.811 49.6866 31.5027V40.688H57.0782V31.5266C57.0894 29.6763 56.7279 27.8428 56.0154 26.1367Z" fill="#96C2D7"/>
    <path d="M57.1258 40.688H49.7343V45.7431H57.1258V40.688Z" fill="#B2B2B2"/>
    <path d="M55.6584 31.0003C55.6643 29.4773 55.362 27.9691 54.7701 26.5671C54.2013 25.2142 53.3772 23.985 52.3433 22.9472C51.7169 22.3233 51.0226 21.7723 50.2734 21.3047L49.8372 21.0416C49.7336 20.9984 49.6179 20.9946 49.5119 21.0311C49.4058 21.0676 49.3166 21.1417 49.2611 21.2397C49.2056 21.3376 49.1875 21.4525 49.2104 21.5629C49.2332 21.6732 49.2953 21.7714 49.3851 21.8389L49.6706 22.0144C51.2144 22.9436 52.4926 24.259 53.3807 25.8323C54.2688 27.4056 54.7365 29.1833 54.7384 30.9923C54.7384 31.115 54.7869 31.2326 54.8731 31.3194C54.9594 31.4061 55.0764 31.4548 55.1984 31.4548C55.3204 31.4548 55.4374 31.4061 55.5237 31.3194C55.6099 31.2326 55.6584 31.115 55.6584 30.9923V31.0003Z" fill="white"/>
    <path d="M43.3259 17.6929C40.0313 17.6908 36.8476 18.889 34.3641 21.0656C35.6088 22.3203 36.6023 23.8036 37.2906 25.435C37.6324 26.2509 37.8979 27.0971 38.0837 27.9625C38.6598 27.0943 39.4391 26.3815 40.353 25.8866C41.267 25.3917 42.2878 25.1299 43.3259 25.124V17.6929Z" fill="#E9500E"/>
    <path d="M35.9505 26.1367C35.266 24.4942 34.2692 23.0018 33.016 21.7433C31.7396 20.4567 30.2228 19.4365 28.5527 18.7414C26.8827 18.0462 25.0924 17.6899 23.2849 17.6929V25.124C24.9676 25.124 26.5814 25.7961 27.7713 26.9923C28.9611 28.1885 29.6296 29.811 29.6296 31.5027V40.688H37.0211V31.5266C37.0297 29.6758 36.6655 27.8423 35.9505 26.1367Z" fill="#96C2D7"/>
    <path d="M16.9086 40.688H9.51707V45.7431H16.9086V40.688Z" fill="#B2B2B2"/>
    <path d="M37.037 40.688H29.6454V45.7431H37.037V40.688Z" fill="#B2B2B2"/>
    <path d="M23.277 17.6928C21.4692 17.6876 19.6783 18.043 18.008 18.7382C16.3376 19.4335 14.821 20.4549 13.5459 21.7433C12.2845 22.9982 11.2819 24.4912 10.5957 26.1366C9.88147 27.8427 9.51471 29.6755 9.51707 31.5266V40.6879H16.9086V31.5266C16.9086 29.8348 17.577 28.2124 18.7669 27.0162C19.9567 25.8199 21.5705 25.1479 23.2532 25.1479L23.277 17.6928Z" fill="#E9500E"/>
    <path d="M35.5777 31.0003C35.5809 29.4768 35.276 27.9685 34.6815 26.5671C34.1092 25.2084 33.2734 23.9778 32.223 22.9472C31.5966 22.3233 30.9023 21.7723 30.1531 21.3047L29.7169 21.0416C29.6133 20.9984 29.4976 20.9946 29.3916 21.0311C29.2855 21.0676 29.1963 21.1417 29.1408 21.2397C29.0853 21.3376 29.0672 21.4525 29.0901 21.5629C29.1129 21.6732 29.175 21.7714 29.2648 21.8389L29.5503 22.0144C31.0952 22.9425 32.3742 24.2575 33.2624 25.8311C34.1507 27.4047 34.6178 29.183 34.6181 30.9923C34.6329 31.1056 34.6881 31.2095 34.7734 31.2848C34.8588 31.3601 34.9685 31.4017 35.0821 31.4017C35.1956 31.4017 35.3053 31.3601 35.3907 31.2848C35.476 31.2095 35.5313 31.1056 35.546 30.9923L35.5777 31.0003Z" fill="white"/>
  </g>
  <defs>
    <clipPath id="clip0_21_238">
      <rect width="232" height="67" fill="white"/>
    </clipPath>
  </defs>
</svg>
